<svg width="40" height="36" viewBox="0 0 40 36" fill="none" xmlns="http://www.w3.org/2000/svg">
<path fill-rule="evenodd" clip-rule="evenodd" d="M1.05547 5.28535H5.46526C6.04897 5.28535 6.52074 4.80959 6.52074 4.22988V1.05547C6.52074 0.471764 6.04897 0 5.46526 0H1.05547C0.471764 0 0 0.471764 0 1.05547V4.22988C0 4.81359 0.471764 5.28535 1.05547 5.28535ZM12.5817 5.28535H38.9485C39.5322 5.28535 40.004 4.80959 40 4.22988V1.05547C40 0.471764 39.5282 0 38.9445 0H12.5817C11.998 0 11.5262 0.471764 11.5262 1.05547V4.22988C11.5262 4.81359 11.998 5.28535 12.5817 5.28535ZM1.05547 20.2419H5.46526C6.04897 20.2419 6.52074 19.7701 6.52074 19.1864V16.012C6.52074 15.4283 6.04897 14.9565 5.46526 14.9565H1.05547C0.471764 14.9565 0 15.4283 0 16.012V19.1864C0 19.7701 0.471764 20.2419 1.05547 20.2419ZM12.5817 20.2419H38.9485C39.5322 20.2419 40.004 19.7701 40 19.1864V16.012C40 15.4283 39.5282 14.9565 38.9445 14.9565H12.5817C11.998 14.9565 11.5262 15.4283 11.5262 16.012V19.1864C11.5262 19.7701 11.998 20.2419 12.5817 20.2419ZM1.05547 35.1984H5.46526C6.04897 35.1984 6.52074 34.7266 6.52074 34.1429V30.9685C6.52074 30.3848 6.04897 29.913 5.46526 29.913H1.05547C0.471764 29.913 0 30.3848 0 30.9685V34.1429C0 34.7266 0.471764 35.1984 1.05547 35.1984ZM12.5817 35.1984H38.9485C39.5322 35.1984 40.004 34.7266 40 34.1429V30.9685C40 30.3848 39.5282 29.913 38.9445 29.913H12.5817C11.998 29.913 11.5262 30.3848 11.5262 30.9685V34.1429C11.5262 34.7266 11.998 35.1984 12.5817 35.1984Z" fill="white"/>
</svg>
